<?xml version="1.0" encoding="UTF-8"?>
<svg width="268px" height="239px" viewBox="0 0 268 239" version="1.1" xmlns="http://www.w3.org/2000/svg" xmlns:xlink="http://www.w3.org/1999/xlink">
    <!-- Generator: Sketch 63.1 (92452) - https://sketch.com -->
    <title>ic_2</title>
    <desc>Created with Sketch.</desc>
    <g id="User-Side" stroke="none" stroke-width="1" fill="none" fill-rule="evenodd">
        <g id="ic_2" transform="translate(0.000000, -1.000000)">
            <g id="Group-42-Copy">
                <rect id="Rectangle" fill="#4A4A4A" transform="translate(80.731323, 36.000000) rotate(38.000000) translate(-80.731323, -36.000000) " x="78.231323" y="-7" width="5" height="86" rx="2.5"></rect>
                <rect id="Rectangle" fill="#4A4A4A" transform="translate(186.654815, 34.817984) scale(-1, 1) rotate(38.000000) translate(-186.654815, -34.817984) " x="184.154815" y="-6.68201613" width="5" height="83" rx="2.5"></rect>
                <rect id="Rectangle" stroke="#3C3C3C" stroke-width="4" fill="#EDE6CE" x="2" y="63.5760215" width="264" height="34"></rect>
                <path d="M245.644866,97.5760215 L22.3551338,97.5760215 L39.8461655,204.112306 C40.9569993,210.878293 44.4362383,216.744222 49.3519112,220.918654 C54.2675841,225.093086 60.6196908,227.576022 67.4762601,227.576022 L200.52374,227.576022 C207.380309,227.576022 213.732416,225.093086 218.648089,220.918654 C223.563762,216.744222 227.043001,210.878293 228.153835,204.112306 L245.644866,97.5760215 Z" id="Rectangle-Copy-27" stroke="#3C3C3C" stroke-width="4" fill="#FFFFFF"></path>
                <rect id="Rectangle" fill="#3C3C3C" x="91" y="129.576022" width="12" height="66" rx="6"></rect>
                <rect id="Rectangle-Copy-30" fill="#3C3C3C" x="128" y="129.576022" width="12" height="66" rx="6"></rect>
                <rect id="Rectangle-Copy-31" fill="#3C3C3C" x="165" y="129.576022" width="12" height="66" rx="6"></rect>
                <rect id="Rectangle" stroke="#3C3C3C" stroke-width="4" fill="#FFFFFF" x="189" y="161.576022" width="76" height="76" rx="38"></rect>
                <path d="M230,205.768022 L230,205.000022 C230,203.880022 230.2,202.952022 230.6,202.216022 C231,201.480022 231.744,200.600022 232.832,199.576022 C234.208,198.264022 235.248,197.016022 235.952,195.832022 C236.656,194.648022 237.008,193.224022 237.008,191.560022 C237.008,189.864022 236.568,188.320022 235.688,186.928022 C234.808,185.536022 233.584,184.440022 232.016,183.640022 C230.448,182.840022 228.656,182.440022 226.64,182.440022 C223.952,182.440022 221.72,183.184022 219.944,184.672022 C218.168,186.160022 216.976,187.928022 216.368,189.976022 L216.368,189.976022 L221.888,192.280022 C222.24,191.160022 222.824,190.224022 223.64,189.472022 C224.456,188.720022 225.504,188.344022 226.784,188.344022 C228,188.344022 228.976,188.688022 229.712,189.376022 C230.448,190.064022 230.816,190.904022 230.816,191.896022 C230.816,192.728022 230.6,193.464022 230.168,194.104022 C229.736,194.744022 229.04,195.496022 228.08,196.360022 C226.448,197.800022 225.304,199.080022 224.648,200.200022 C223.992,201.320022 223.664,202.648022 223.664,204.184022 L223.664,204.184022 L223.664,205.768022 L230,205.768022 Z M226.784,217.864022 C227.936,217.864022 228.912,217.456022 229.712,216.640022 C230.512,215.824022 230.912,214.840022 230.912,213.688022 C230.912,212.536022 230.512,211.560022 229.712,210.760022 C228.912,209.960022 227.936,209.560022 226.784,209.560022 C225.632,209.560022 224.648,209.960022 223.832,210.760022 C223.016,211.560022 222.608,212.536022 222.608,213.688022 C222.608,214.840022 223.016,215.824022 223.832,216.640022 C224.648,217.456022 225.632,217.864022 226.784,217.864022 Z" id="?" fill="#AA182C" fill-rule="nonzero"></path>
            </g>
        </g>
    </g>
</svg>