<?xml version="1.0" encoding="UTF-8"?>
<svg width="20px" height="24px" viewBox="0 0 20 24" version="1.1" xmlns="http://www.w3.org/2000/svg" xmlns:xlink="http://www.w3.org/1999/xlink">
    <!-- Generator: Sketch 63.1 (92452) - https://sketch.com -->
    <title>ic_pinterest</title>
    <desc>Created with Sketch.</desc>
    <g id="Page-1" stroke="none" stroke-width="1" fill="none" fill-rule="evenodd">
        <g id="ic_pinterest" fill="#B21B33" fill-rule="nonzero">
            <path d="M10.0756875,0 C3.4981875,0 0.0001875,4.215 0.0001875,8.811 C0.0001875,10.9425 1.1911875,13.6005 3.0976875,14.4435 C3.3871875,14.574 3.5446875,14.5185 3.6091875,14.25 C3.6661875,14.046 3.9166875,13.0635 4.0381875,12.6 C4.0756875,12.4515 4.0561875,12.3225 3.9361875,12.183 C3.3031875,11.451 2.8006875,10.1175 2.8006875,8.8665 C2.8006875,5.661 5.3491875,2.5485 9.6856875,2.5485 C13.4356875,2.5485 16.0591875,4.9845 16.0591875,8.469 C16.0591875,12.4065 13.9756875,15.1305 11.2681875,15.1305 C9.7696875,15.1305 8.6536875,13.9545 9.0076875,12.4995 C9.4351875,10.767 10.2736875,8.904 10.2736875,7.6545 C10.2736875,6.534 9.6406875,5.607 8.3476875,5.607 C6.8221875,5.607 5.5846875,7.1175 5.5846875,9.1455 C5.5846875,10.434 6.0406875,11.304 6.0406875,11.304 C6.0406875,11.304 4.5316875,17.4 4.2511875,18.5385 C3.7771875,20.466 4.3156875,23.5875 4.3621875,23.856 C4.3906875,24.0045 4.5571875,24.051 4.6501875,23.9295 C4.7986875,23.7345 6.6226875,21.132 7.1341875,19.251 C7.3201875,18.5655 8.0836875,15.786 8.0836875,15.786 C8.5861875,16.6935 10.0366875,17.454 11.5816875,17.454 C16.1776875,17.454 19.4986875,13.4145 19.4986875,8.4015 C19.4821875,3.5955 15.3691875,0 10.0756875,0 Z" id="Path"></path>
        </g>
    </g>
</svg>