<?xml version="1.0" encoding="utf-8"?>
<!-- Generator: Adobe Illustrator 23.1.1, SVG Export Plug-In . SVG Version: 6.00 Build 0)  -->
<svg version="1.1" id="Capa_1" xmlns="http://www.w3.org/2000/svg" xmlns:xlink="http://www.w3.org/1999/xlink" x="0px" y="0px"
	 viewBox="0 0 3559.8 512" style="enable-background:new 0 0 3559.8 512;" xml:space="preserve">
<style type="text/css">
	.st0{fill:#EFCF46;}
</style>
<g>
	<path class="st0" d="M512,192H328L256,0l-72,192H0l138.5,121.2L64,512l192-96l192,96l-74.5-198.8L512,192z"/>
</g>
<g>
	<path class="st0" d="M1272.5,192h-184l-72-192l-72,192h-184l138.5,121.2L824.5,512l192-96l192,96L1134,313.2L1272.5,192z"/>
</g>
<g>
	<path class="st0" d="M2033.1,192h-184l-72-192l-72,192h-184l138.5,121.2L1585.1,512l192-96l192,96l-74.5-198.8L2033.1,192z"/>
</g>
<g>
	<path class="st0" d="M2793.6,192h-184l-72-192l-72,192h-184l138.5,121.2L2345.6,512l192-96l192,96L2655,313.2L2793.6,192z"/>
</g>
<g>
	<path class="st0" d="M3554.1,192h-184l-72-192l-72,192h-184l138.5,121.2L3106.1,512l192-96l192,96l-74.5-198.8L3554.1,192z"/>
</g>
</svg>
